<svg xmlns="http://www.w3.org/2000/svg" viewBox="0 0 100 32" fill="currentColor" aria-hidden="true">
  <path d="M16.8 7.5c1 0 1.8.3 2.4.9.6.6.9 1.4.9 2.4 0 1-.3 1.8-.9 2.4-.6.6-1.4.9-2.4.9-1 0-1.8-.3-2.4-.9-.6-.6-.9-1.4-.9-2.4 0-1 .3-1.8.9-2.4.6-.6 1.4-.9 2.4-.9zm-3.2 5.4c.4.5 1 .8 1.6.8.6 0 1.2-.3 1.6-.8l3.8 6.6c-.8.6-1.8 1-2.9 1-1.1 0-2.1-.4-2.9-1l-1.2-2.1-1.2 2.1c-.8.6-1.8 1-2.9 1-1.1 0-2.1-.4-2.9-1l4.3-7.5z"/>
  <text x="24" y="22" font-family="system-ui, -apple-system, sans-serif" font-size="15" font-weight="600">tv+</text>
</svg>
