<svg xmlns="http://www.w3.org/2000/svg" viewBox="0 0 120 32" fill="currentColor" aria-hidden="true">
  <path d="M105.062 14.28L111 30c-1.75-.25-3.499-.563-5.28-.845l-3.345-8.686-3.437 7.969c-1.687-.282-3.344-.376-5.031-.595l6.031-13.75L94.468 0h5.063l3.062 7.874L105.875 0h5.124l-5.937 14.28zM90.47 0h-4.594v27.25c1.5.094 3.062.156 4.594.343V0zm-8.563 26.937c-1.687-.156-3.375-.343-5.062-.5V0h4.687v26.937zm-8.625 0c-1.687-.156-3.375-.343-5.062-.5V0h4.687v26.937zM64.125 0v27.25c1.562.125 3.125.219 4.687.281V0h-4.687z"/>
</svg>
